<?xml version="1.0" encoding="UTF-8"?>
<svg version="1.1" xmlns="http://www.w3.org/2000/svg" width="512" height="512">
<path d="M0 0 C1.15396271 0.00215515 2.30792542 0.0043103 3.49685669 0.00653076 C20.01328195 0.05608963 36.21174426 0.31996308 52.5 3.3125 C53.64259277 3.51649414 54.78518555 3.72048828 55.96240234 3.93066406 C93.55141872 10.79409376 128.27856765 23.40871674 162.25585938 40.68286133 C163.56586914 41.34838013 163.56586914 41.34838013 164.90234375 42.02734375 C165.67054443 42.42042725 166.43874512 42.81351074 167.23022461 43.21850586 C169.61461088 44.36774055 172.03248314 45.35658565 174.5 46.3125 C175.49628418 45.26908447 175.49628418 45.26908447 176.51269531 44.20458984 C179.0239331 41.58326428 181.55620198 38.98306973 184.09472656 36.38818359 C185.1824355 35.27063486 186.26466307 34.14771985 187.34082031 33.01904297 C196.94005049 22.96398343 206.54830258 15.37519694 221.0625 15 C231.86193376 15.13267118 240.76504022 18.79282737 248.5 26.3125 C256.31199581 34.71869683 259.84797364 44.87286647 259.5 56.3125 C257.43320698 72.15128879 246.94011245 81.25232111 236.0625 91.875 C233.47667247 94.41413232 230.89522374 96.95765559 228.31640625 99.50390625 C227.70044586 100.11118561 227.08448547 100.71846497 226.44985962 101.34414673 C222.88030135 104.88234224 219.43504091 108.4614981 216.25958347 112.36397648 C214.5 114.3125 214.5 114.3125 212.26143551 116.15466213 C207.42354476 120.25450612 204.93352485 123.22938363 204.39320374 129.66212463 C204.35573547 132.13458734 204.367194 134.60810205 204.41821289 137.08032227 C204.41415518 138.45157538 204.40610771 139.82282154 204.39440918 141.19403076 C204.37372769 144.90039694 204.40778647 148.60445799 204.4513886 152.31054807 C204.48724418 156.21911703 204.47009938 160.12745342 204.45835876 164.03611755 C204.44366284 171.45555391 204.4728886 178.87409876 204.51952976 186.29337782 C204.58581366 197.0990417 204.59252262 207.90476575 204.59185696 218.71060848 C204.59182912 219.51230624 204.59180129 220.314004 204.59177262 221.13999563 C204.59169751 222.74289595 204.59149986 224.34579627 204.59117693 225.94869655 C204.59178547 230.56853508 204.60707428 235.18801823 204.63522041 239.80776799 C204.76089806 261.22965317 204.5752313 282.69202886 200.1875 303.75 C199.96803711 304.83434326 199.74857422 305.91868652 199.52246094 307.03588867 C190.59270903 350.00153688 169.09166716 384.45537505 133.87744141 410.54248047 C129.6389813 413.6980397 125.44860458 416.91672776 121.25 420.125 C119.47029079 421.48078215 117.69034088 422.8362484 115.91015625 424.19140625 C112.29142191 426.94719652 108.67433976 429.70513389 105.05859375 432.46484375 C96.59607209 438.92207574 88.12258609 445.36233561 79.59643555 451.73535156 C74.03907949 455.89480215 68.51787474 460.10086534 63 464.3125 C56.22238086 469.48566124 49.42771573 474.63361057 42.59545898 479.734375 C37.96006899 483.20087095 33.36148691 486.71321503 28.77050781 490.23828125 C25.21412378 492.96232009 21.64381653 495.66759967 18.06884766 498.3671875 C16.39195117 499.63705171 14.71952235 500.91284347 13.05224609 502.1953125 C10.80013767 503.92259881 8.52879899 505.6206605 6.25 507.3125 C5.59588135 507.82296875 4.9417627 508.3334375 4.26782227 508.859375 C0.21436506 511.81300072 -3.12061659 513.1959778 -8.19238281 512.88183594 C-12.77685901 511.75075273 -16.13210922 508.8534677 -19.75 505.9375 C-20.58354004 505.29409668 -21.41708008 504.65069336 -22.27587891 503.98779297 C-24.69827727 502.11357975 -27.09944635 500.21454947 -29.5 498.3125 C-30.6251133 497.44467769 -31.7523809 496.57963321 -32.8828125 495.71875 C-35.47079579 493.74566614 -38.04604431 491.75706358 -40.61914062 489.76464844 C-51.38568862 481.45215785 -62.21075534 473.22059498 -73.1875 465.1875 C-80.13618043 460.10225737 -86.95693433 454.87676095 -93.73120117 449.56201172 C-99.08264061 445.37778749 -104.51569125 441.32060819 -110 437.3125 C-117.00967244 432.18960725 -123.89533739 426.93403093 -130.71948242 421.56689453 C-135.36392863 417.92883823 -140.07946396 414.41446053 -144.86181641 410.95996094 C-183.34200841 383.12909882 -204.92286101 344.79929402 -213.03173828 298.26074219 C-216.09218054 278.89798546 -216.64947273 259.45423397 -216.66113281 239.88525391 C-216.6657777 238.02851771 -216.6708045 236.17178244 -216.67617798 234.31504822 C-216.68912118 229.33872392 -216.69570786 224.36241298 -216.70018864 219.38607454 C-216.70314172 216.27142317 -216.70724989 213.15677529 -216.71169281 210.0421257 C-216.72530387 200.27809343 -216.73500832 190.51406934 -216.7388947 180.75002825 C-216.74339614 169.50803545 -216.76106665 158.26616296 -216.7898953 147.02420676 C-216.81148374 138.30194686 -216.82159703 129.57972097 -216.82293582 120.85743463 C-216.82398348 115.65905553 -216.82988644 110.46079055 -216.84775543 105.26243973 C-216.86419261 100.38834452 -216.86641295 95.51444999 -216.85761642 90.64033699 C-216.85684441 88.85247702 -216.86121031 87.06460638 -216.87107468 85.27677345 C-216.88374423 82.83797158 -216.87794564 80.3998866 -216.86749268 77.96109009 C-216.87554908 77.25322534 -216.88360548 76.5453606 -216.89190602 75.8160454 C-216.84832605 71.47381878 -216.11529817 68.78870159 -213.5 65.3125 C-211.58544922 63.70727539 -211.58544922 63.70727539 -209.4296875 62.34765625 C-208.63014648 61.84250488 -207.83060547 61.33735352 -207.00683594 60.81689453 C-157.1230398 30.88078703 -101.17529989 10.23978963 -43.5 2.3125 C-42.23736328 2.13372314 -40.97472656 1.95494629 -39.67382812 1.77075195 C-26.46806737 0.02937204 -13.30295587 -0.04460037 0 0 Z " fill="#27A2CC" transform="translate(234.5,-0.3125)"/>
<path d="M0 0 C1.15396271 0.00215515 2.30792542 0.0043103 3.49685669 0.00653076 C20.01328195 0.05608963 36.21174426 0.31996308 52.5 3.3125 C53.64259277 3.51649414 54.78518555 3.72048828 55.96240234 3.93066406 C93.55141872 10.79409376 128.27856765 23.40871674 162.25585938 40.68286133 C163.56586914 41.34838013 163.56586914 41.34838013 164.90234375 42.02734375 C165.67054443 42.42042725 166.43874512 42.81351074 167.23022461 43.21850586 C169.61461088 44.36774055 172.03248314 45.35658565 174.5 46.3125 C175.49628418 45.26908447 175.49628418 45.26908447 176.51269531 44.20458984 C179.0239331 41.58326428 181.55620198 38.98306973 184.09472656 36.38818359 C185.1824355 35.27063486 186.26466307 34.14771985 187.34082031 33.01904297 C196.94005049 22.96398343 206.54830258 15.37519694 221.0625 15 C231.86193376 15.13267118 240.76504022 18.79282737 248.5 26.3125 C256.31199581 34.71869683 259.84797364 44.87286647 259.5 56.3125 C257.43320698 72.15128879 246.94011245 81.25232111 236.0625 91.875 C233.47667247 94.41413232 230.89522374 96.95765559 228.31640625 99.50390625 C227.70044586 100.11118561 227.08448547 100.71846497 226.44985962 101.34414673 C222.88030135 104.88234224 219.43504091 108.4614981 216.25958347 112.36397648 C214.5 114.3125 214.5 114.3125 212.26143551 116.15466213 C207.42354476 120.25450612 204.93352485 123.22938363 204.39320374 129.66212463 C204.35573547 132.13458734 204.367194 134.60810205 204.41821289 137.08032227 C204.41415518 138.45157538 204.40610771 139.82282154 204.39440918 141.19403076 C204.37372769 144.90039694 204.40778647 148.60445799 204.4513886 152.31054807 C204.48724418 156.21911703 204.47009938 160.12745342 204.45835876 164.03611755 C204.44366284 171.45555391 204.4728886 178.87409876 204.51952976 186.29337782 C204.58581366 197.0990417 204.59252262 207.90476575 204.59185696 218.71060848 C204.59182912 219.51230624 204.59180129 220.314004 204.59177262 221.13999563 C204.59169751 222.74289595 204.59149986 224.34579627 204.59117693 225.94869655 C204.59178547 230.56853508 204.60707428 235.18801823 204.63522041 239.80776799 C204.76089806 261.22965317 204.5752313 282.69202886 200.1875 303.75 C199.96803711 304.83434326 199.74857422 305.91868652 199.52246094 307.03588867 C190.59270903 350.00153688 169.09166716 384.45537505 133.87744141 410.54248047 C129.6389813 413.6980397 125.44860458 416.91672776 121.25 420.125 C119.47029079 421.48078215 117.69034088 422.8362484 115.91015625 424.19140625 C112.29142191 426.94719652 108.67433976 429.70513389 105.05859375 432.46484375 C96.59607209 438.92207574 88.12258609 445.36233561 79.59643555 451.73535156 C74.03907949 455.89480215 68.51787474 460.10086534 63 464.3125 C56.22238086 469.48566124 49.42771573 474.63361057 42.59545898 479.734375 C37.96006899 483.20087095 33.36148691 486.71321503 28.77050781 490.23828125 C25.21412378 492.96232009 21.64381653 495.66759967 18.06884766 498.3671875 C16.39195117 499.63705171 14.71952235 500.91284347 13.05224609 502.1953125 C10.80013767 503.92259881 8.52879899 505.6206605 6.25 507.3125 C5.59588135 507.82296875 4.9417627 508.3334375 4.26782227 508.859375 C0.21436506 511.81300072 -3.12061659 513.1959778 -8.19238281 512.88183594 C-12.77685901 511.75075273 -16.13210922 508.8534677 -19.75 505.9375 C-20.58354004 505.29409668 -21.41708008 504.65069336 -22.27587891 503.98779297 C-24.69827727 502.11357975 -27.09944635 500.21454947 -29.5 498.3125 C-30.6251133 497.44467769 -31.7523809 496.57963321 -32.8828125 495.71875 C-35.47079579 493.74566614 -38.04604431 491.75706358 -40.61914062 489.76464844 C-51.38568862 481.45215785 -62.21075534 473.22059498 -73.1875 465.1875 C-80.13618043 460.10225737 -86.95693433 454.87676095 -93.73120117 449.56201172 C-99.08264061 445.37778749 -104.51569125 441.32060819 -110 437.3125 C-117.00967244 432.18960725 -123.89533739 426.93403093 -130.71948242 421.56689453 C-135.36392863 417.92883823 -140.07946396 414.41446053 -144.86181641 410.95996094 C-183.34200841 383.12909882 -204.92286101 344.79929402 -213.03173828 298.26074219 C-216.09218054 278.89798546 -216.64947273 259.45423397 -216.66113281 239.88525391 C-216.6657777 238.02851771 -216.6708045 236.17178244 -216.67617798 234.31504822 C-216.68912118 229.33872392 -216.69570786 224.36241298 -216.70018864 219.38607454 C-216.70314172 216.27142317 -216.70724989 213.15677529 -216.71169281 210.0421257 C-216.72530387 200.27809343 -216.73500832 190.51406934 -216.7388947 180.75002825 C-216.74339614 169.50803545 -216.76106665 158.26616296 -216.7898953 147.02420676 C-216.81148374 138.30194686 -216.82159703 129.57972097 -216.82293582 120.85743463 C-216.82398348 115.65905553 -216.82988644 110.46079055 -216.84775543 105.26243973 C-216.86419261 100.38834452 -216.86641295 95.51444999 -216.85761642 90.64033699 C-216.85684441 88.85247702 -216.86121031 87.06460638 -216.87107468 85.27677345 C-216.88374423 82.83797158 -216.87794564 80.3998866 -216.86749268 77.96109009 C-216.87554908 77.25322534 -216.88360548 76.5453606 -216.89190602 75.8160454 C-216.84832605 71.47381878 -216.11529817 68.78870159 -213.5 65.3125 C-211.58544922 63.70727539 -211.58544922 63.70727539 -209.4296875 62.34765625 C-208.63014648 61.84250488 -207.83060547 61.33735352 -207.00683594 60.81689453 C-157.1230398 30.88078703 -101.17529989 10.23978963 -43.5 2.3125 C-42.23736328 2.13372314 -40.97472656 1.95494629 -39.67382812 1.77075195 C-26.46806737 0.02937204 -13.30295587 -0.04460037 0 0 Z M-37.5 22.3125 C-38.48210449 22.43077148 -39.46420898 22.54904297 -40.47607422 22.67089844 C-84.34574153 28.13289091 -125.79144443 42.98605486 -165.5625 61.875 C-166.60752686 62.36846924 -167.65255371 62.86193848 -168.72924805 63.37036133 C-170.77525545 64.36012722 -172.8063049 65.38156156 -174.81921768 66.43700695 C-177.43623264 67.80472041 -180.08947809 69.00621412 -182.79887009 70.1789217 C-190.8428373 73.77532795 -190.8428373 73.77532795 -196.47344112 80.21427321 C-198.01372337 85.70271632 -197.66421077 91.34106043 -197.47753906 96.9831543 C-197.47765515 98.86848366 -197.4852331 100.75382499 -197.49966431 102.63909912 C-197.51731145 107.74378421 -197.42989856 112.84180308 -197.32249165 117.94518638 C-197.22687785 123.31132904 -197.22616399 128.67752537 -197.21429443 134.04438782 C-197.18119541 143.06957299 -197.08619116 152.09230318 -196.94726562 161.11645508 C-196.75260545 173.76869271 -196.67069625 186.41977842 -196.61117983 199.0732702 C-196.56029183 208.96958086 -196.47737698 218.86566753 -196.390625 228.76171875 C-196.38184484 229.80843364 -196.37306467 230.85514854 -196.36401844 231.93358207 C-196.28652776 264.2619349 -196.28652776 264.2619349 -192.5 296.3125 C-192.27679455 297.58662026 -192.27679455 297.58662026 -192.0490799 298.88648033 C-185.98635031 333.32643529 -168.84369742 367.07294268 -140.5 388.3125 C-139.25657042 389.26791691 -138.01447239 390.22506832 -136.7734375 391.18359375 C-133.16174976 393.96678931 -129.53382692 396.72805764 -125.90234375 399.48535156 C-123.39970928 401.38877802 -120.90247581 403.29911554 -118.40625 405.2109375 C-109.15542665 412.28955151 -99.85360135 419.28456814 -90.45361328 426.16381836 C-84.30057572 430.68327773 -78.27493209 435.35087804 -72.26879883 440.06298828 C-66.91735939 444.24721251 -61.48430875 448.30439181 -56 452.3125 C-49.75116896 456.87934553 -43.58982564 461.53569497 -37.5 466.3125 C-31.11962051 471.30700928 -24.68957963 476.22723524 -18.1875 481.0625 C-17.39279297 481.65933594 -16.59808594 482.25617188 -15.77929688 482.87109375 C-13.71387706 484.39747636 -11.62224593 485.86667153 -9.5 487.3125 C-8.24509766 488.18648438 -8.24509766 488.18648438 -6.96484375 489.078125 C-3.2267924 489.4335657 -1.46203685 487.52108978 1.37304688 485.22265625 C2.11619141 484.59230469 2.85933594 483.96195312 3.625 483.3125 C5.24021571 481.99757419 6.85746767 480.68514641 8.4765625 479.375 C9.30704102 478.69695312 10.13751953 478.01890625 10.99316406 477.3203125 C14.90245776 474.18922257 18.94663594 471.2530938 23 468.3125 C29.2505144 463.74810558 35.41083277 459.08993884 41.5 454.3125 C48.48715905 448.8309888 55.58619584 443.52416519 62.75048828 438.27685547 C68.20663335 434.27718084 73.59274067 430.20516073 78.94140625 426.0625 C89.88410263 417.58824994 100.91753753 409.22791668 112 400.9375 C113.90204891 399.51137892 115.80371169 398.08474569 117.70507812 396.65771484 C118.88481507 395.77355399 120.06577077 394.89101658 121.24804688 394.01025391 C150.53043655 372.16585955 168.1208611 345.55037593 177.5 310.3125 C177.80679687 309.18457031 178.11359375 308.05664062 178.4296875 306.89453125 C183.35758076 287.25916273 183.92789392 267.66853353 183.80418181 247.5285871 C183.78510798 243.88519043 183.78364091 240.2417818 183.78010559 236.5983429 C183.77087347 229.73535715 183.74638284 222.87251905 183.71605712 216.0095976 C183.68223362 208.18098552 183.66595772 200.35236546 183.65097082 192.52369821 C183.61982256 176.45321312 183.5672391 160.38287556 183.5 144.3125 C179.01108782 148.07477821 174.71654944 151.94971868 170.58398438 156.09912109 C170.03825272 156.64310043 169.49252106 157.18707977 168.93025208 157.74754333 C167.14891584 159.52452265 165.37121093 161.30508248 163.59375 163.0859375 C162.34271568 164.33629691 161.09153306 165.58650796 159.84020996 166.83657837 C157.22631831 169.4490013 154.61422927 172.06320966 152.00341797 174.67871094 C148.67500113 178.0128186 145.34212219 181.3424238 142.00786591 184.67069054 C139.42538643 187.249537 136.84531747 189.83078459 134.26594543 192.4127388 C133.03881492 193.64053133 131.81095522 194.86759556 130.58232117 196.09388351 C128.85777232 197.8158612 127.13651436 199.54106667 125.41601562 201.26708984 C124.91918777 201.76189346 124.42235992 202.25669708 123.91047668 202.76649475 C121.22004952 205.47275645 118.66347539 208.25120154 116.17211914 211.1423645 C112.25502642 215.65817983 108.06970444 219.86862865 103.83007812 224.08007812 C102.99173935 224.91695663 102.15340057 225.75383514 101.28965759 226.61607361 C99.48148901 228.42045689 97.67216677 230.2236847 95.86180115 232.02586365 C92.99209764 234.88272718 90.12552426 237.74269655 87.2598877 240.6036377 C80.66020138 247.19134083 74.05548521 253.77399346 67.45070648 260.35659027 C61.39165046 266.39540197 55.33369453 272.43530678 49.27979422 278.47928762 C45.98203943 281.77130348 42.6803973 285.05938979 39.37805176 288.34680176 C37.64185959 290.07935929 35.90580885 291.81205856 34.16992188 293.54492188 C33.39257187 294.31710556 32.61522186 295.08928925 31.8143158 295.88487244 C27.69740438 300.00138712 23.74983569 304.20409402 19.95921612 308.6237812 C16.6105538 312.49911463 12.93057297 316.06644428 9.3125 319.6875 C8.51908203 320.49316406 7.72566406 321.29882812 6.90820312 322.12890625 C6.14056641 322.89847656 5.37292969 323.66804688 4.58203125 324.4609375 C3.89343018 325.15364746 3.2048291 325.84635742 2.49536133 326.56005859 C-0.50731833 329.19718506 -2.81516744 330.19397129 -6.75 330.875 C-14.77244674 329.67163299 -19.90138368 321.9172348 -25.02734375 316.10546875 C-27.74875335 313.03152267 -30.52282651 310.01183997 -33.3125 307 C-34.0708313 306.1800354 -34.0708313 306.1800354 -34.84448242 305.34350586 C-35.8785208 304.22554269 -36.91278332 303.10778678 -37.94726562 301.99023438 C-40.4876648 299.24532508 -43.02532337 296.49788781 -45.5625 293.75 C-46.05983643 293.21141357 -46.55717285 292.67282715 -47.06958008 292.11791992 C-50.8419268 288.03054441 -54.6015907 283.9316906 -58.35791016 279.82958984 C-61.70980894 276.17068352 -65.07112426 272.52058915 -68.4375 268.875 C-68.93419189 268.33705811 -69.43088379 267.79911621 -69.94262695 267.24487305 C-72.49664158 264.47950308 -75.05223556 261.71560563 -77.609375 258.953125 C-79.63310369 256.76684654 -81.65220136 254.5764319 -83.66796875 252.3828125 C-85.46813995 250.42443148 -87.28334174 248.48583442 -89.11328125 246.5546875 C-93.57230419 241.78185444 -97.06872203 237.39699357 -99.5 231.3125 C-99.85578125 230.549375 -100.2115625 229.78625 -100.578125 229 C-103.4215391 220.710725 -102.14537545 210.19476466 -98.5 202.3125 C-93.24785856 193.32986557 -85.37514034 186.61012316 -75.5 183.3125 C-65.57669086 180.91118641 -55.78783541 181.8198767 -46.8125 186.625 C-38.41502253 191.89934156 -31.52476437 199.68546259 -25.125 207.1875 C-22.767666 209.91693613 -20.34312769 212.52441684 -17.78125 215.0625 C-17.1011084 215.73941895 -16.4209668 216.41633789 -15.72021484 217.11376953 C-14.33778518 218.48202373 -12.95274456 219.8476456 -11.56494141 221.21044922 C-10.92733887 221.83967285 -10.28973633 222.46889648 -9.6328125 223.1171875 C-9.05418457 223.68421387 -8.47555664 224.25124023 -7.87939453 224.83544922 C-6.5 226.3125 -6.5 226.3125 -5.5 228.3125 C-2.20007891 226.87060719 -0.02170824 225.08243921 2.51489258 222.54052734 C3.29282669 221.76566986 4.0707608 220.99081238 4.87226868 220.19247437 C5.70461533 219.3529422 6.53696198 218.51341003 7.39453125 217.6484375 C8.26011154 216.78239899 9.12569183 215.91636047 10.01750183 215.02407837 C11.8497322 213.1888264 13.679531 211.35114413 15.50708008 209.51123047 C18.28616091 206.71401101 21.07304149 203.9247587 23.86132812 201.13671875 C25.64369945 199.3494272 27.42561508 197.56168107 29.20703125 195.7734375 C30.44644218 194.53235733 30.44644218 194.53235733 31.71089172 193.26620483 C32.49828232 192.47243439 33.28567291 191.67866394 34.09692383 190.86083984 C34.77991043 190.17404144 35.46289703 189.48724304 36.1665802 188.77963257 C38.07589309 186.76090966 39.89312961 184.70966322 41.70463562 182.60488892 C45.80836303 177.8893001 50.19636386 173.49069221 54.62890625 169.0859375 C55.51601288 168.20029114 56.40311951 167.31464478 57.31710815 166.40216064 C59.23169204 164.491364 61.14714525 162.58149097 63.06417847 160.67315674 C66.10230507 157.64867324 69.13650583 154.62027113 72.17016602 151.59130859 C79.15688097 144.61658181 86.14862373 137.64690231 93.14042664 130.67727661 C99.55404725 124.28389465 105.96657159 117.88942299 112.37504101 111.49087715 C115.38399158 108.48687505 118.39535466 105.48531991 121.40866089 102.48568726 C123.73147632 100.17215429 126.05100639 97.85533077 128.37109375 95.5390625 C129.6072493 94.31065643 129.6072493 94.31065643 130.86837769 93.05743408 C135.10779012 88.81840796 139.18605067 84.50308533 143.08657932 79.94922447 C144.72333276 78.0538833 146.44645278 76.27990201 148.24609375 74.5390625 C149.1597168 73.64380859 149.1597168 73.64380859 150.09179688 72.73046875 C151.34804856 71.51010997 152.60592578 70.2914228 153.86523438 69.07421875 C154.46529297 68.48511719 155.06535156 67.89601562 155.68359375 67.2890625 C156.22556396 66.76393066 156.76753418 66.23879883 157.32592773 65.69775391 C158.71552094 64.36085763 158.71552094 64.36085763 158.5 62.3125 C119.78888164 40.98853128 75.57294358 24.1973462 31 21.75 C24.9291623 21.40886348 24.9291623 21.40886348 22.25146484 20.80761719 C18.92422463 20.20889109 15.76411015 20.16476942 12.3828125 20.14453125 C11.69774628 20.14029648 11.01268005 20.13606171 10.30685425 20.13169861 C8.07950732 20.12179866 5.85236513 20.12178471 3.625 20.125 C2.4788623 20.12590637 2.4788623 20.12590637 1.30957031 20.12683105 C-11.71816716 20.1547788 -24.56198275 20.69270987 -37.5 22.3125 Z " fill="#062B75" transform="translate(234.5,-0.3125)"/>
<path d="M0 0 C0.75300385 -0.00099701 1.50600769 -0.00199402 2.28182983 -0.00302124 C4.44059088 -0.00269665 6.59909502 0.0063342 8.7578125 0.01953125 C10.00965332 0.02702393 11.26149414 0.0345166 12.55126953 0.04223633 C15.46232035 0.16946383 18.04272109 0.55085836 20.875 1.1875 C22.83208492 1.31295416 24.79076306 1.41449714 26.75 1.5 C36.25301378 2.14410417 45.54550031 3.84642227 54.89453125 5.62255859 C56.80960519 5.98555672 58.72618994 6.34072019 60.64453125 6.68603516 C93.67222575 12.67857813 125.65615835 25.91015355 154.875 42.1875 C153.42311406 45.53793397 151.5930341 47.69236196 148.98828125 50.234375 C148.21419922 50.9975 147.44011719 51.760625 146.64257812 52.546875 C145.42731445 53.73023437 145.42731445 53.73023437 144.1875 54.9375 C139.08575272 59.92698389 134.1286307 64.93547343 129.48071289 70.35253906 C127.08682199 73.08820638 124.53004665 75.64156899 121.9375 78.1875 C121.44443359 78.67605469 120.95136719 79.16460937 120.44335938 79.66796875 C119.25626771 80.84353525 118.06599502 82.01588826 116.875 83.1875 C112.14771404 81.75476872 107.8705841 79.76556809 103.5 77.5 C55.5843186 53.22986999 -0.16932145 43.27041766 -53.125 55.1875 C-54.58268799 55.50098389 -54.58268799 55.50098389 -56.06982422 55.82080078 C-88.84314335 62.96871469 -123.06504325 75.48086217 -151.125 94.1875 C-151.58280012 96.94977022 -151.58280012 96.94977022 -151.50595093 100.25375366 C-151.5144104 101.54862198 -151.52286987 102.8434903 -151.53158569 104.17759705 C-151.52575163 105.62149172 -151.51960705 107.06538517 -151.51318359 108.50927734 C-151.51724735 110.02390421 -151.52258813 111.53852811 -151.52911377 113.05314636 C-151.54283755 117.18034558 -151.53746249 121.30732072 -151.52797651 125.43452406 C-151.52038111 129.76670912 -151.52742751 134.09887497 -151.53213501 138.43106079 C-151.53760341 145.72653635 -151.53038356 153.02192105 -151.51611328 160.31738281 C-151.49989464 168.70473957 -151.50499159 177.0918763 -151.5215925 185.47922742 C-151.53530889 192.70246942 -151.53707468 199.92564596 -151.52927649 207.14889681 C-151.524641 211.45205749 -151.52385728 215.75511575 -151.53388596 220.0582695 C-151.60719628 245.76063947 -151.60719628 245.76063947 -148.125 271.1875 C-147.89179047 272.32939789 -147.65858093 273.47129578 -147.41830444 274.64779663 C-143.57865489 292.32921746 -135.47632545 311.16193002 -122.35546875 323.90625 C-121.125 325.1875 -121.125 325.1875 -121.125 327.1875 C-120.5475 327.44402344 -119.97 327.70054687 -119.375 327.96484375 C-116.91004071 329.30430948 -115.17015821 330.83266418 -113.125 332.75 C-108.8660552 336.60365812 -104.41942517 340.04733352 -99.80078125 343.45703125 C-95.17816207 346.87284317 -90.62669773 350.38178454 -86.0625 353.875 C-79.23731046 359.0908599 -72.3702898 364.24062072 -65.4375 369.3125 C-58.49547985 374.39267567 -51.68106226 379.61276668 -44.91357422 384.92260742 C-38.61941376 389.84411258 -32.21185466 394.59994127 -25.75585938 399.30664062 C-20.46620363 403.16841384 -15.27403 407.1401512 -10.125 411.1875 C-5.09215343 408.46669716 -0.7671862 405.46184096 3.625 401.8125 C9.35773913 397.13611611 15.20961006 392.67066526 21.1875 388.3125 C28.50776768 382.97195077 35.70507015 377.49740457 42.82543945 371.89306641 C55.17967881 362.1875 55.17967881 362.1875 57.875 362.1875 C57.875 361.5275 57.875 360.8675 57.875 360.1875 C59.4128418 358.83398438 59.4128418 358.83398438 61.57421875 357.28125 C62.36497803 356.70729492 63.1557373 356.13333984 63.97045898 355.54199219 C64.82583252 354.93000977 65.68120605 354.31802734 66.5625 353.6875 C68.31841339 352.41242871 70.07361973 351.13638318 71.828125 349.859375 C73.12459961 348.91868164 73.12459961 348.91868164 74.44726562 347.95898438 C79.67613465 344.14355058 84.78696277 340.18857777 89.875 336.1875 C90.88949219 335.4140625 91.90398437 334.640625 92.94921875 333.84375 C115.58483273 315.99030799 127.10178069 288.67469547 131.25195312 260.65698242 C132.14269396 252.64654245 131.61695257 244.85392821 131.04579163 236.84341431 C126.60812163 173.76518628 126.60812163 173.76518628 143.1328125 154.52734375 C153.37283123 142.98171935 165.88871567 132.48132141 178.875 124.1875 C179.205 124.1875 179.535 124.1875 179.875 124.1875 C179.96912968 140.96635683 180.03931083 157.74512587 180.08224869 174.52418423 C180.10273002 182.31788992 180.13056811 190.11143003 180.17675781 197.9050293 C180.21707442 204.71100003 180.24253708 211.51685068 180.25135398 218.32293755 C180.25649441 221.91490559 180.26825941 225.50653059 180.29792023 229.09838676 C180.62616452 270.50367779 173.55149452 315.53647215 145.875 348.1875 C145.43994141 348.70473633 145.00488281 349.22197266 144.55664062 349.75488281 C136.88953613 358.76832654 128.30216286 366.08153331 118.875 373.1875 C118.12186523 373.75694336 117.36873047 374.32638672 116.59277344 374.91308594 C112.4429767 378.04542534 108.28140898 381.16163731 104.11328125 384.26953125 C98.86281537 388.18850644 93.64608126 392.15059227 88.4375 396.125 C87.56931641 396.78709473 86.70113281 397.44918945 85.80664062 398.13134766 C81.38531725 401.50461122 76.96717235 404.88200115 72.55078125 408.26171875 C63.37342749 415.27805716 54.1500092 422.21703237 44.82763672 429.03955078 C38.68164588 433.55379452 32.66263731 438.2156808 26.66357422 442.92260742 C20.36941376 447.84411258 13.96185466 452.59994127 7.50585938 457.30664062 C6.77044922 457.84353516 6.03503906 458.38042969 5.27734375 458.93359375 C4.55530762 459.45550293 3.83327148 459.97741211 3.08935547 460.51513672 C1.51842619 461.70156071 -0.01067631 462.94429125 -1.50732422 464.22314453 C-2.28736816 464.8829834 -3.06741211 465.54282227 -3.87109375 466.22265625 C-4.56775146 466.83633057 -5.26440918 467.45000488 -5.98217773 468.08227539 C-8.125 469.1875 -8.125 469.1875 -10.59960938 468.58398438 C-13.1837031 467.1550385 -15.45153011 465.61777691 -17.78515625 463.80859375 C-18.65462891 463.13957031 -19.52410156 462.47054688 -20.41992188 461.78125 C-21.78987305 460.71390625 -21.78987305 460.71390625 -23.1875 459.625 C-25.09481627 458.15464198 -27.00236641 456.68458726 -28.91015625 455.21484375 C-29.82039551 454.51085449 -30.73063477 453.80686523 -31.66845703 453.08154297 C-34.46807655 450.92298123 -37.28952507 448.79867364 -40.125 446.6875 C-44.5967821 443.34797567 -49.03561825 439.96734013 -53.46948242 436.57763672 C-61.20022483 430.6683025 -68.95903591 424.80792471 -76.8125 419.0625 C-83.76127045 413.97738446 -90.58193869 408.75175753 -97.35620117 403.43701172 C-102.70764487 399.25278416 -108.14077067 395.19572272 -113.625 391.1875 C-122.22129109 384.90260103 -130.64483844 378.41503454 -139.01855469 371.83740234 C-141.29526368 370.05413863 -143.58105672 368.28288332 -145.8671875 366.51171875 C-176.69418466 342.52668165 -191.62909597 307.04214294 -197.125 269.1875 C-197.29330259 268.07959358 -197.46160519 266.97168716 -197.63500786 265.83020782 C-199.15240898 255.00266042 -199.39764051 244.39162389 -199.35205078 233.47070312 C-199.3514852 231.54718532 -199.35180609 229.62366709 -199.35293579 227.70014954 C-199.35350456 222.52973551 -199.34182815 217.35941618 -199.32778788 212.18902397 C-199.31520037 206.76652392 -199.31410374 201.34402119 -199.31173706 195.92150879 C-199.30554569 185.67618159 -199.2891669 175.43089758 -199.26903808 165.18558931 C-199.24660574 153.5119277 -199.23566728 141.83826391 -199.22564721 130.16458607 C-199.20479836 106.17220019 -199.16966841 82.17985253 -199.125 58.1875 C-196.89782277 56.91202431 -194.67031896 55.63712486 -192.44262695 54.36254883 C-191.81747444 54.00445381 -191.19232193 53.6463588 -190.5482254 53.27741241 C-144.83139667 27.12878945 -93.64423661 8.1366344 -41.125 2.1875 C-39.84302734 2.0330542 -39.84302734 2.0330542 -38.53515625 1.87548828 C-25.69203081 0.36551458 -12.91690409 0.00460666 0 0 Z " fill="#D0DBFC" transform="translate(238.125,19.8125)"/>
<path d="M0 0 C2.61036986 0.01831239 5.22038285 0.0205083 7.83081055 0.02026367 C49.97327756 0.1037936 90.44918335 11.27183433 126.54760742 33.20581055 C122.30645684 38.27170361 117.87310177 43.01470733 113.18457031 47.66650391 C112.11747581 48.731408 112.11747581 48.731408 111.02882385 49.81782532 C109.49456133 51.34830306 107.95914535 52.8776252 106.42268562 54.40589714 C103.98572241 56.83001347 101.55196955 59.25731261 99.1190033 61.68544006 C93.07694076 67.71418262 87.02944889 73.73746951 80.9821167 79.76092529 C75.86564045 84.85761413 70.75125443 89.95638335 65.63958549 95.05789375 C63.25152881 97.43950724 60.86046055 99.81806811 58.46925354 102.19651794 C56.99269938 103.66943649 55.51628717 105.14249736 54.04003906 106.61572266 C53.05399689 107.59401535 53.05399689 107.59401535 52.04803467 108.59207153 C48.2321202 112.40755463 44.62277053 116.34538365 41.09564304 120.42899418 C39.2927027 122.49838707 37.4145883 124.47215997 35.47998047 126.41870117 C34.7662175 127.13884399 34.05245453 127.85898682 33.31706238 128.60095215 C32.57200943 129.34711792 31.82695648 130.09328369 31.05932617 130.86206055 C30.27491653 131.64979858 29.4905069 132.43753662 28.68232727 133.24914551 C27.03903682 134.89746282 25.39442182 136.54446061 23.74853516 138.19018555 C21.219692 140.72123944 18.69898149 143.26021597 16.1784668 145.79956055 C14.576742 147.40421522 12.97454551 149.00839922 11.37182617 150.61206055 C10.61665207 151.37442017 9.86147797 152.13677979 9.0834198 152.92224121 C8.38541763 153.61716675 7.68741547 154.31209229 6.96826172 155.02807617 C6.35428024 155.64348267 5.74029877 156.25888916 5.10771179 156.89294434 C3.54760742 158.20581055 3.54760742 158.20581055 1.54760742 158.20581055 C0.34838867 156.9831543 0.34838867 156.9831543 -1.13989258 155.14331055 C-4.85330747 150.75757212 -8.86832148 146.74104819 -12.95239258 142.70581055 C-17.45005026 138.25288939 -21.81301567 133.77575423 -25.93286133 128.9675293 C-34.01840973 119.59328167 -42.39024521 112.97982188 -55.09301758 112.00268555 C-65.64303592 111.81316426 -73.49914982 114.82601117 -82.45239258 120.20581055 C-84.94210248 106.18850671 -85.98181543 92.62173263 -85.88989258 78.39331055 C-85.88682602 76.95420319 -85.88682602 76.95420319 -85.88369751 75.48602295 C-85.83346496 60.9879746 -84.90252198 47.3340117 -81.45239258 33.20581055 C-80.85449059 30.50046999 -80.28028376 27.79053953 -79.70239258 25.08081055 C-79.46004883 24.04698242 -79.21770508 23.0131543 -78.96801758 21.94799805 C-78.46765331 19.28696988 -78.41505291 16.90388432 -78.45239258 14.20581055 C-66.89199627 10.47732819 -55.32700539 6.98138005 -43.45239258 4.39331055 C-42.1316272 4.10194214 -42.1316272 4.10194214 -40.78417969 3.8046875 C-27.12326462 0.93275475 -13.91376754 -0.10064444 0 0 Z " fill="#66CBD0" transform="translate(227.452392578125,69.794189453125)"/>
<path d="M0 0 C4.89186906 2.35534436 7.81078942 5.7173458 11 10 C12.38761413 14.16284238 12.63553877 17.65623116 12 22 C7.77908912 30.33299963 -0.90362848 37.13419033 -7.46484375 43.625 C-8.78522723 44.93910014 -10.10508828 46.25372541 -11.42445374 47.56884766 C-14.88461458 51.01577009 -18.35030872 54.45706907 -21.81768799 57.89672852 C-27.36359848 63.39936522 -32.90274803 68.90878573 -38.43857002 74.42156982 C-40.36091943 76.33379387 -42.28669744 78.24251243 -44.21287537 80.15087891 C-45.40627791 81.33744497 -46.59956681 82.52412534 -47.79272461 83.7109375 C-48.58240128 84.49050812 -48.58240128 84.49050812 -49.38803101 85.28582764 C-52.14766719 88.03719444 -54.76921539 90.8567532 -57.31166077 93.81066895 C-61.40115609 98.53073402 -65.79264125 102.91774566 -70.22070312 107.31835938 C-71.59738082 108.69279557 -72.97405838 110.06723189 -74.3507309 111.44167328 C-75.81599357 112.90358715 -77.28249767 114.36424494 -78.74937439 115.82453918 C-81.82110493 118.88262865 -84.88891148 121.94463495 -87.95617676 125.00720215 C-95.02029742 132.05933369 -102.08944549 139.10641857 -109.15865326 146.15345001 C-115.64318682 152.61774599 -122.12662484 159.08313102 -128.60600805 165.55258989 C-131.64841039 168.59004316 -134.6932256 171.62504949 -137.7399826 174.65813446 C-139.18145315 176.09390824 -140.62174755 177.53084977 -142.0615387 178.9683075 C-143.80740844 180.71133462 -145.55505237 182.45258746 -147.30491638 184.19160461 C-151.47729833 188.36361044 -155.46595054 192.6167564 -159.31476784 197.08794403 C-162.17743556 200.33591249 -165.24330017 203.37409991 -168.31225586 206.42578125 C-169.00578156 207.11945297 -169.69930725 207.81312469 -170.41384888 208.52781677 C-172.67848174 210.79175988 -174.94662249 213.05215259 -177.21484375 215.3125 C-178.79689566 216.8926844 -180.37872512 218.47309153 -181.96034241 220.05371094 C-186.10253278 224.19210237 -190.24771857 228.32748054 -194.39355469 232.46221924 C-198.63203643 236.69043019 -202.86765171 240.92151052 -207.10351562 245.15234375 C-215.39955512 253.43769225 -223.69876482 261.71985738 -232 270 C-236.05152417 268.15130373 -238.5759573 265.47136599 -241.5 262.1875 C-242.5714487 261.005058 -243.64306807 259.82277063 -244.71484375 258.640625 C-245.25995605 258.03541016 -245.80506836 257.43019531 -246.36669922 256.80664062 C-248.90845243 253.99513483 -251.48652696 251.21761469 -254.0625 248.4375 C-258.3391802 243.80789661 -262.6014958 239.16532084 -266.85791016 234.51708984 C-272.22148052 228.66225866 -277.61130451 222.83169679 -283 217 C-284.01304751 215.90367048 -285.02606838 214.80731635 -286.0390625 213.7109375 C-286.53937988 213.16945068 -287.03969727 212.62796387 -287.55517578 212.07006836 C-289.04840484 210.45276634 -290.53985692 208.83383871 -292.03125 207.21484375 C-294.04319012 205.03191533 -296.06520194 202.85890473 -298.09375 200.69140625 C-299.08335924 199.62762827 -300.07294354 198.56382708 -301.0625 197.5 C-301.94035156 196.5615625 -302.81820312 195.623125 -303.72265625 194.65625 C-307.78905109 189.91328518 -309.63590541 186.57051177 -309.41796875 180.34375 C-308.46099356 174.97753397 -305.27814018 171.18684445 -301.375 167.5625 C-296.82177975 164.56696036 -292.29389789 164.15129573 -287 165 C-280.5497267 167.80398479 -276.15713556 172.78170492 -271.65625 178.01953125 C-268.37087013 181.70592072 -264.88838896 185.15747326 -261.375 188.625 C-256.97169047 192.98359221 -252.69097454 197.35266292 -248.6875 202.0859375 C-241.26965685 211.27684303 -241.26965685 211.27684303 -230.95401001 215.57666016 C-225.49477489 215.48809603 -222.96051658 213.02343993 -219.18299866 209.31388855 C-218.37543625 208.4755397 -217.56787384 207.63719086 -216.73583984 206.7734375 C-215.85819473 205.89871292 -214.98054962 205.02398834 -214.0763092 204.12275696 C-211.68132218 201.72680093 -209.30805597 199.31264229 -206.94242811 196.88790512 C-204.45394602 194.3466556 -201.94013782 191.83070335 -199.42910767 189.31176758 C-195.21326049 185.07571309 -191.01397356 180.82383437 -186.82617188 176.56005859 C-180.94112615 170.56826646 -175.0282208 164.60460226 -169.10872722 158.64686584 C-160.72243431 150.20346728 -152.35027738 141.74602807 -144.00537109 133.26171875 C-142.78795479 132.02848625 -142.78795479 132.02848625 -141.54594421 130.77033997 C-138.0818659 127.24091075 -134.68689107 123.69122721 -131.45608521 119.94616699 C-127.7304781 115.63026848 -123.74146946 111.61557652 -119.69726562 107.59960938 C-118.89794113 106.80174515 -118.09861664 106.00388092 -117.27507019 105.18183899 C-115.55202607 103.46257849 -113.82782843 101.74447341 -112.10258484 100.02742004 C-109.36729749 97.30498045 -106.63521982 94.57935569 -103.90393066 91.85290527 C-97.61367991 85.57500826 -91.31877283 79.30178998 -85.02361298 73.02881622 C-78.78749181 66.81455977 -72.55339316 60.59829357 -66.32267761 54.37861633 C-63.63989934 51.70228838 -60.95411109 49.02900673 -58.26818848 46.35583496 C-56.61288813 44.70416947 -54.95772933 43.05236211 -53.30273438 41.40039062 C-52.56278732 40.66560989 -51.82284027 39.93082916 -51.06047058 39.17378235 C-47.04405563 35.15777311 -43.20404297 31.04803957 -39.50643349 26.73593616 C-35.99302397 22.68726445 -32.13635747 18.95042172 -28.34716797 15.16186523 C-26.86525263 13.67773808 -25.39156188 12.1857446 -23.91796875 10.69335938 C-22.96403103 9.73649105 -22.00962065 8.78009365 -21.0546875 7.82421875 C-20.20374512 6.96916748 -19.35280273 6.11411621 -18.47607422 5.2331543 C-12.56293437 -0.09986583 -7.78792534 -1.02080317 0 0 Z " fill="#AFD752" transform="translate(461,36)"/>
<path d="M0 0 C0.09371998 10.27689548 0.16427199 20.55368519 0.20724869 30.83092499 C0.22790146 35.60586408 0.25579682 40.38050556 0.30175781 45.15527344 C0.65604856 82.99139525 -0.8406738 120.9856152 -27 151 C-27.47824219 151.60972656 -27.95648438 152.21945312 -28.44921875 152.84765625 C-37.47244953 164.19779468 -51.07519275 172.48905948 -62.55615234 181.14990234 C-64.16198361 182.36558559 -65.76150902 183.58965219 -67.35400391 184.82275391 C-68.06862793 185.37237793 -68.78325195 185.92200195 -69.51953125 186.48828125 C-70.14577393 186.97466064 -70.7720166 187.46104004 -71.41723633 187.9621582 C-73 189 -73 189 -75 189 C-75.33 189.66 -75.66 190.32 -76 191 C-76 190.34 -76 189.68 -76 189 C-76.72493652 188.87794189 -77.44987305 188.75588379 -78.19677734 188.63012695 C-103.01436999 183.05146412 -127.27282154 163.26206992 -145.55859375 146.25390625 C-147.64051229 144.33187905 -149.76425897 142.50374045 -151.9375 140.6875 C-163.17478553 130.84345516 -172.14937896 118.95092379 -181 107 C-180.505 106.01 -180.505 106.01 -180 105 C-168.08378927 116.7401091 -168.08378927 116.7401091 -162.92578125 122.78125 C-160.23349614 125.88311195 -157.46446855 128.91147413 -154.6875 131.9375 C-154.15898437 132.51814209 -153.63046875 133.09878418 -153.0859375 133.69702148 C-149.19857611 138.00353956 -149.19857611 138.00353956 -143.75 139.3125 C-137.26993484 138.77249457 -133.28825573 134.54029927 -128.84765625 130.078125 C-128.38443466 129.61444519 -127.92121307 129.15076538 -127.44395447 128.67303467 C-126.47107509 127.6971552 -125.50060571 126.71886763 -124.5324707 125.73828125 C-123.07482952 124.2624831 -121.60944593 122.79474672 -120.14257812 121.328125 C-116.26991033 117.43545868 -112.4460287 113.54046328 -108.87193298 109.36895752 C-104.87906382 104.79515599 -100.63610779 100.50983337 -96.33007812 96.23242188 C-95.07256996 94.97710411 -95.07256996 94.97710411 -93.78965759 93.69642639 C-91.98148901 91.89204311 -90.17216677 90.0888153 -88.36180115 88.28663635 C-85.49209764 85.42977282 -82.62552426 82.56980345 -79.7598877 79.7088623 C-73.16020138 73.12115917 -66.55548521 66.53850654 -59.95070648 59.95590973 C-53.89165046 53.91709803 -47.83369453 47.87719322 -41.77979422 41.83321238 C-38.48203943 38.54119652 -35.1803973 35.25311021 -31.87805176 31.96569824 C-30.14185959 30.23314071 -28.40580885 28.50044144 -26.66992188 26.76757812 C-25.50389687 25.6093026 -25.50389687 25.6093026 -24.3143158 24.42762756 C-20.21169813 20.32540525 -16.27736164 16.13906827 -12.50339508 11.73168182 C-10.31307994 9.20877287 -7.99124984 6.85896908 -5.625 4.5 C-4.77164063 3.6440625 -3.91828125 2.788125 -3.0390625 1.90625 C-1 0 -1 0 0 0 Z " fill="#66CBD0" transform="translate(371,191)"/>
<path d="M0 0 C0.09412968 16.77885683 0.16431083 33.55762587 0.20724869 50.33668423 C0.22773002 58.13038992 0.25556811 65.92393003 0.30175781 73.7175293 C0.34207442 80.52350003 0.36753708 87.32935068 0.37635398 94.13543755 C0.38149441 97.72740559 0.39325941 101.31903059 0.42292023 104.91088676 C0.75116452 146.31617779 -6.32350548 191.34897215 -34 224 C-34.65258789 224.77585449 -34.65258789 224.77585449 -35.31835938 225.56738281 C-42.96832308 234.56067583 -51.58713453 241.90953497 -61 249 C-61.62318115 249.53858643 -62.2463623 250.07717285 -62.88842773 250.63208008 C-67.47003724 253.6001409 -73.65136076 252.38432278 -78.81982422 251.53857422 C-81.71668082 250.91295014 -84.57331034 250.19859676 -87.4375 249.4375 C-88.46359375 249.17372559 -89.4896875 248.90995117 -90.546875 248.63818359 C-100.5661697 245.98974179 -110.29849086 242.62733417 -120 239 C-120 235 -120 235 -118.53808594 233.40356445 C-117.52149902 232.64112427 -117.52149902 232.64112427 -116.484375 231.86328125 C-115.73365723 231.29061523 -114.98293945 230.71794922 -114.20947266 230.12792969 C-113.39784668 229.52883789 -112.5862207 228.92974609 -111.75 228.3125 C-110.92677246 227.68891602 -110.10354492 227.06533203 -109.25537109 226.42285156 C-106.84640583 224.60211653 -104.42574727 222.79829146 -102 221 C-97.98937206 218.01388387 -93.98208765 215.02415887 -90 212 C-88.50919922 210.87271484 -88.50919922 210.87271484 -86.98828125 209.72265625 C-64.33047552 191.82269961 -52.78154651 164.54341219 -48.62304688 136.46948242 C-47.73230604 128.45904245 -48.25804743 120.66642821 -48.82920837 112.65591431 C-53.26687837 49.57768628 -53.26687837 49.57768628 -36.7421875 30.33984375 C-9.83324283 0 -9.83324283 0 0 0 Z " fill="#FDFEFE" transform="translate(418,144)"/>
<path d="M0 0 C2.30125337 0.00541993 4.60231652 -0.00001014 6.90356445 -0.00634766 C8.3820805 -0.00568775 9.86059644 -0.00440841 11.33911133 -0.00244141 C12.01936874 -0.00446564 12.69962616 -0.00648987 13.40049744 -0.00857544 C17.01519621 0.00918358 20.32225886 0.3267748 23.84301758 1.13037109 C25.8001025 1.25582526 27.75878063 1.35736823 29.71801758 1.44287109 C39.22103136 2.08697526 48.51351788 3.78929337 57.86254883 5.56542969 C59.77762277 5.92842781 61.69420751 6.28359128 63.61254883 6.62890625 C96.64024333 12.62144923 128.62417593 25.85302465 157.84301758 42.13037109 C156.39113164 45.48080507 154.56105168 47.63523305 151.95629883 50.17724609 C150.79517578 51.32193359 150.79517578 51.32193359 149.6105957 52.48974609 C148.39533203 53.67310547 148.39533203 53.67310547 147.15551758 54.88037109 C142.0537703 59.86985499 137.09664828 64.87834452 132.44873047 70.29541016 C130.05483957 73.03107748 127.49806423 75.58444008 124.90551758 78.13037109 C124.41245117 78.61892578 123.91938477 79.10748047 123.41137695 79.61083984 C122.22428529 80.78640634 121.0340126 81.95875936 119.84301758 83.13037109 C115.11573162 81.69763981 110.83860168 79.70843918 106.46801758 77.44287109 C58.67744709 53.23611195 2.67555589 43.04224391 -50.15698242 55.13037109 C-51.23512207 55.37658203 -52.31326172 55.62279297 -53.42407227 55.87646484 C-65.63967212 58.64870228 -65.63967212 58.64870228 -77.58276367 62.37255859 C-80.28758041 63.16881724 -81.55757556 63.13014296 -84.15698242 62.13037109 C-81.55430773 51.40190389 -77.75840337 41.40787951 -73.28198242 31.31787109 C-72.78859375 30.19856201 -72.29520508 29.07925293 -71.78686523 27.92602539 C-62.50047893 7.36179845 -62.50047893 7.36179845 -57.01245117 4.47802734 C-55.74014648 4.36330078 -54.4678418 4.24857422 -53.15698242 4.13037109 C-51.17389259 3.85835895 -49.1908216 3.58620945 -47.20776367 3.31396484 C-44.96235063 3.05919429 -42.71622282 2.81065779 -40.46948242 2.56787109 C-39.3615332 2.4421875 -38.25358398 2.31650391 -37.11206055 2.18701172 C-33.79533322 1.81676337 -30.47708712 1.46889745 -27.15698242 1.13037109 C-26.20218994 1.02885742 -25.24739746 0.92734375 -24.26367188 0.82275391 C-16.17347215 0.04347681 -8.11967901 -0.0228007 0 0 Z " fill="#FDFDFE" transform="translate(235.156982421875,19.86962890625)"/>
</svg>
