<svg width="32" height="32" viewBox="0 0 32 32" fill="none" xmlns="http://www.w3.org/2000/svg">
  <!-- Central node -->
  <circle cx="16" cy="16" r="3.5" fill="#0d1117"/>
  
  <!-- Outer nodes -->
  <!-- Top -->
  <circle cx="16" cy="4" r="2" fill="#0d1117"/>
  <!-- Top-right -->
  <circle cx="25.5" cy="7.5" r="2" fill="#0d1117"/>
  <!-- Right -->
  <circle cx="28" cy="16" r="2" fill="#0d1117"/>
  <!-- Bottom-right -->
  <circle cx="25.5" cy="24.5" r="2" fill="#0d1117"/>
  <!-- Bottom -->
  <circle cx="16" cy="28" r="2.5" fill="#0d1117"/>
  <!-- Bottom-left -->
  <circle cx="6.5" cy="24.5" r="2" fill="#0d1117"/>
  <!-- Left -->
  <circle cx="4" cy="16" r="2" fill="#0d1117"/>
  <!-- Top-left -->
  <circle cx="6.5" cy="7.5" r="2" fill="#0d1117"/>
  
  <!-- Connection lines -->
  <!-- To top -->
  <line x1="16" y1="12.5" x2="16" y2="6" stroke="#0d1117" stroke-width="2"/>
  <!-- To top-right -->
  <line x1="18.5" y1="13.5" x2="23.5" y2="9.5" stroke="#0d1117" stroke-width="2"/>
  <!-- To right -->
  <line x1="19.5" y1="16" x2="26" y2="16" stroke="#0d1117" stroke-width="2"/>
  <!-- To bottom-right -->
  <line x1="18.5" y1="18.5" x2="23.5" y2="22.5" stroke="#0d1117" stroke-width="2"/>
  <!-- To bottom -->
  <line x1="16" y1="19.5" x2="16" y2="25.5" stroke="#0d1117" stroke-width="2"/>
  <!-- To bottom-left -->
  <line x1="13.5" y1="18.5" x2="8.5" y2="22.5" stroke="#0d1117" stroke-width="2"/>
  <!-- To left -->
  <line x1="12.5" y1="16" x2="6" y2="16" stroke="#0d1117" stroke-width="2"/>
  <!-- To top-left -->
  <line x1="13.5" y1="13.5" x2="8.5" y2="9.5" stroke="#0d1117" stroke-width="2"/>
</svg>