<svg xmlns="http://www.w3.org/2000/svg" viewBox="0 0 100 100" class="iconOnly">
  <g transform="translate(5, 1.5) scale(1.05, 1.05)" stroke="none" fill="#2BBBAD">
    <path d="M92.812 49.125a6.058 6.058 0 00-5.383 3.281l-27.775-4.741a10.628 10.628 0 00-.43-1.82l22.734-11.268c1.703 1.74 4.389 2.262 6.658 1.072a5.663 5.663 0 10-5.262-10.03c-2.172 1.143-3.273 3.49-2.957 5.785l-22.842 11.32a10.669 10.669 0 00-1.673-1.732l18.902-26.375c.938.109 1.906.016 2.84-.373a5.662 5.662 0 10-7.405-3.044c.317.76.788 1.403 1.353 1.935l-18.795 26.1a10.61 10.61 0 00-1.633-.45l-1.179-19.699A5.5 5.5 0 1042.375 14a5.499 5.499 0 004.066 5.305l1.161 19.416c-.691.103-1.359.267-1.999.496L24.944 12.771A6.838 6.838 0 0026.25 8.75a6.875 6.875 0 10-6.875 6.875 6.844 6.844 0 002.827-.613l20.281 25.947a10.724 10.724 0 00-2.647 3.174l-18.602-6.435c.005-.1.03-.194.03-.297a5.841 5.841 0 00-5.84-5.84 5.84 5.84 0 000 11.681c1.855 0 3.489-.882 4.558-2.229l18.715 6.473a10.775 10.775 0 00-.152 1.726c0 .078.01.153.011.231L11.63 58.19c-1-1.605-2.767-2.682-4.797-2.682a5.662 5.662 0 000 11.324c2.967 0 5.374-2.291 5.617-5.195l26.773-8.72a10.573 10.573 0 002.546 3.905L30.218 73.656a4.944 4.944 0 00-6.001 3.321 4.956 4.956 0 009.474 2.908c.449-1.464.167-2.963-.607-4.151l11.601-16.906c1.362.635 2.875 1 4.477 1 .207 0 .405-.019.609-.029l2.371 23.204a6.873 6.873 0 002.233 13.372 6.873 6.873 0 001.262-13.629L53.346 58.97a10.617 10.617 0 003.637-2.597l16.47 17.112a5.466 5.466 0 00-.827 2.89 5.5 5.5 0 105.5-5.5c-.615 0-1.205.105-1.758.292-.045-.029-.123-.015-.268.09L58.917 53.404c.301-.699.524-1.437.671-2.203l27.199 4.647a6.062 6.062 0 106.025-6.723z"></path>
  </g>
</svg>