<svg xmlns="http://www.w3.org/2000/svg" viewBox="0 0 509 100" class="iconLeft">
  <g id="071c2ce5-bb37-41a8-8236-923ef010e4c0" fill="currentColor" transform="matrix(6.86498873813172,0,0,6.86498873813172,117.02839670478744,8.010670260985925)">
    <path d="M4.31 1.86L0.81 1.86L1.12 2.91L1.12 10.26L4.31 10.26C6.86 10.26 8.43 8.79 8.43 6.06C8.43 3.33 6.86 1.86 4.31 1.86ZM6.99 6.06C6.99 8.13 6.03 9.13 4.31 9.13L2.44 9.13L2.44 3.00L4.31 3.00C6.03 3.00 6.99 3.99 6.99 6.06ZM14.87 7.07L14.87 5.99L9.63 5.99L9.63 7.07ZM22.48 7.80C22.48 6.24 21.43 5.35 19.28 5.35C18.10 5.35 17.56 4.90 17.56 4.14C17.56 3.57 18.17 2.90 19.47 2.90C20.19 2.90 20.76 2.97 21.35 3.11L21.87 4.00L22.32 4.00L22.32 2.18C21.36 1.86 20.57 1.69 19.47 1.69C17.25 1.69 16.13 2.98 16.13 4.27C16.13 5.81 17.14 6.73 19.28 6.73C20.47 6.73 21.04 7.15 21.04 7.92C21.04 8.55 20.44 9.23 19.08 9.23C17.99 9.23 17.08 9.06 16.13 8.74L16.13 9.94C17.08 10.26 17.99 10.43 19.08 10.43C21.36 10.43 22.48 9.10 22.48 7.80ZM26.61 3.57C24.74 3.57 23.51 4.86 23.51 7C23.51 9.21 24.89 10.43 27.15 10.43C27.76 10.43 28.55 10.29 29.11 10.08L29.11 8.95C28.53 9.14 27.79 9.28 27.15 9.28C25.87 9.28 24.99 8.74 24.88 7.43L29.62 7.43C29.64 7.29 29.64 7.15 29.64 7C29.64 4.86 28.50 3.57 26.61 3.57ZM28.34 6.36L24.89 6.36C25.02 5.25 25.68 4.65 26.61 4.65C27.51 4.65 28.20 5.22 28.34 6.36ZM35.98 10.12L35.98 8.99C35.41 9.17 34.78 9.28 34.22 9.28C32.89 9.28 32.13 8.54 32.13 7C32.13 5.45 32.89 4.70 34.22 4.70C34.45 4.70 34.72 4.73 35 4.79L35.53 5.80L35.98 5.80L35.98 3.86C35.46 3.70 34.75 3.57 34.22 3.57C32.03 3.57 30.76 4.84 30.76 7C30.76 9.14 32.03 10.43 34.22 10.43C34.75 10.43 35.46 10.29 35.98 10.12ZM44.25 10.26L44.25 9.14C44.06 9.21 43.83 9.28 43.60 9.28C43.27 9.28 43.13 9.13 43.13 8.81L43.13 3.72L41.82 3.72L41.82 9.02C41.40 9.18 40.98 9.28 40.47 9.28C39.49 9.28 38.99 8.83 38.99 7.98L38.99 3.72L37.67 3.72L37.67 7.98C37.67 9.52 38.74 10.43 40.47 10.43C41.10 10.43 41.68 10.28 42.20 10.04C42.45 10.29 42.84 10.43 43.26 10.43C43.61 10.43 43.99 10.35 44.25 10.26ZM50.08 5.80L50.08 3.86C49.55 3.70 48.83 3.57 48.30 3.57C47.45 3.57 46.41 3.74 45.56 3.99L45.33 4.05L45.64 5.08L45.64 10.26L46.96 10.26L46.96 4.89C47.38 4.77 47.85 4.70 48.30 4.70C48.54 4.70 48.82 4.73 49.10 4.79L49.62 5.80ZM54.03 3.57C52.15 3.57 50.92 4.86 50.92 7C50.92 9.21 52.30 10.43 54.56 10.43C55.17 10.43 55.96 10.29 56.52 10.08L56.52 8.95C55.94 9.14 55.20 9.28 54.56 9.28C53.28 9.28 52.40 8.74 52.29 7.43L57.04 7.43C57.05 7.29 57.05 7.15 57.05 7C57.05 4.86 55.92 3.57 54.03 3.57ZM55.75 6.36L52.30 6.36C52.43 5.25 53.09 4.65 54.03 4.65C54.92 4.65 55.61 5.22 55.75 6.36Z"></path>
  </g>
  <g id="728a0e38-6e73-4712-933e-62afa9c6c779" transform="matrix(1.05,0,0,1.05,-0.35307515263557576,-1.7062499940395384)" stroke="none" fill="#2BBBAD">
    <path d="M92.812 49.125a6.058 6.058 0 00-5.383 3.281l-27.775-4.741a10.628 10.628 0 00-.43-1.82l22.734-11.268c1.703 1.74 4.389 2.262 6.658 1.072a5.663 5.663 0 10-5.262-10.03c-2.172 1.143-3.273 3.49-2.957 5.785l-22.842 11.32a10.669 10.669 0 00-1.673-1.732l18.902-26.375c.938.109 1.906.016 2.84-.373a5.662 5.662 0 10-7.405-3.044c.317.76.788 1.403 1.353 1.935l-18.795 26.1a10.61 10.61 0 00-1.633-.45l-1.179-19.699A5.5 5.5 0 1042.375 14a5.499 5.499 0 004.066 5.305l1.161 19.416c-.691.103-1.359.267-1.999.496L24.944 12.771A6.838 6.838 0 0026.25 8.75a6.875 6.875 0 10-6.875 6.875 6.844 6.844 0 002.827-.613l20.281 25.947a10.724 10.724 0 00-2.647 3.174l-18.602-6.435c.005-.1.03-.194.03-.297a5.841 5.841 0 00-5.84-5.84 5.84 5.84 0 000 11.681c1.855 0 3.489-.882 4.558-2.229l18.715 6.473a10.775 10.775 0 00-.152 1.726c0 .078.01.153.011.231L11.63 58.19c-1-1.605-2.767-2.682-4.797-2.682a5.662 5.662 0 000 11.324c2.967 0 5.374-2.291 5.617-5.195l26.773-8.72a10.573 10.573 0 002.546 3.905L30.218 73.656a4.944 4.944 0 00-6.001 3.321 4.956 4.956 0 009.474 2.908c.449-1.464.167-2.963-.607-4.151l11.601-16.906c1.362.635 2.875 1 4.477 1 .207 0 .405-.019.609-.029l2.371 23.204a6.873 6.873 0 002.233 13.372 6.873 6.873 0 001.262-13.629L53.346 58.97a10.617 10.617 0 003.637-2.597l16.47 17.112a5.466 5.466 0 00-.827 2.89 5.5 5.5 0 105.5-5.5c-.615 0-1.205.105-1.758.292-.045-.029-.123-.015-.268.09L58.917 53.404c.301-.699.524-1.437.671-2.203l27.199 4.647a6.062 6.062 0 106.025-6.723z"></path>
  </g>
</svg>